<svg xmlns="http://www.w3.org/2000/svg" xmlns:xlink="http://www.w3.org/1999/xlink" version="1.1" x="0px" y="0px" viewBox="0 0 50 62.5" enable-background="new 0 0 50 50" xml:space="preserve"><g><path d="M35.9,26.8c-0.3-0.3-0.8-0.3-1.1-0.1c-0.3,0.3-0.3,0.8-0.1,1.1l1.8,2h-9.9c-0.2,0-0.4,0.1-0.6,0.3   c-1.1,1.3-1.5,1.3-3.4,1.4l-0.4,0c0,0,0,0-0.1,0c-0.4,0-0.8,0.3-0.8,0.7L21.2,38c0,0.4,0.3,0.8,0.7,0.8c0,0,0,0,0,0   c0.4,0,0.7-0.3,0.7-0.7l0.2-5.2c1.7-0.1,2.8-0.2,4.1-1.6h11.2c0.3,0,0.6-0.2,0.7-0.4s0.1-0.6-0.1-0.8L35.9,26.8z"/><path d="M19,30.8C19,30.8,19,30.8,19,30.8c-3-1.2-4.7-3.8-4.7-7.2c0-1.2,0.3-3.1,0.7-4.1c0,0,0-0.1,0-0.1   c0,0,0-0.1,0-0.1c0,0,0-0.1,0-0.1c0,0,0-0.1,0-0.1c0,0,0-0.1-0.1-0.1c0,0,0-0.1-0.1-0.1c0,0-0.1-0.1-0.1-0.1c0,0-0.1-0.1-0.1-0.1   l-3.9-2l3.6-2c0,0,0.1-0.1,0.1-0.1c0,0,0.1,0,0.1-0.1c0.1-0.1,0.3-0.3,0.4-0.4c0.8-1,1.6-1.9,3.1-1.9h8.1c-0.9,0.9-1.8,2.2-1.8,3.8   c0,0,0,0,0,0c0,0,0,0,0,0c0,0,0,0.1,0,0.1c0,0.1,0,0.1,0,0.2c0,0.1,0.1,0.1,0.1,0.1c0,0,0,0.1,0.1,0.1l7.5,8.3   c0.1,0.2,0.4,0.2,0.6,0.2c0.2,0,0.4-0.1,0.5-0.2c0.3-0.3,0.3-0.8,0.1-1.1l-7.3-8.1c0.2-2.1,2.9-3.6,2.9-3.6   c0.3-0.2,0.5-0.5,0.4-0.8s-0.4-0.6-0.7-0.6H18c-2.1,0-3.3,1.4-4.2,2.4c-0.1,0.1-0.2,0.2-0.3,0.3l-4.7,2.7c-0.2,0.1-0.4,0.4-0.4,0.7   c0,0.3,0.2,0.5,0.4,0.7l4.5,2.3c-0.4,1.2-0.6,2.9-0.6,4c0,3.9,2,7,5.3,8.4L18,38c0,0.4,0.3,0.8,0.7,0.8c0,0,0,0,0,0   c0.4,0,0.7-0.3,0.8-0.7l0.1-6.5C19.6,31.2,19.3,30.9,19,30.8z"/><circle cx="17.5" cy="15.5" r="1.2"/><path d="M40.4,22.5c0,0-4.2-1.7-8.4-3.3c-0.4-0.1-0.8,0.1-1,0.4c-0.1,0.4,0.1,0.8,0.4,1c2.6,0.9,5.1,1.9,6.7,2.6   c-4.7,1.9-13.1,5.1-15.3,5.1c-2.8,0-5.1-2.3-5.1-5.1s2.3-5.1,5.1-5.1c0.2,0,0.5,0,1,0.1c0.4,0.1,0.8-0.2,0.9-0.6   c0.1-0.4-0.2-0.8-0.6-0.9c-0.5-0.1-1-0.2-1.3-0.2c-3.6,0-6.6,3-6.6,6.6s3,6.6,6.6,6.6c3.3,0,16.1-5.3,17.6-5.9   c0.3-0.1,0.5-0.4,0.5-0.7S40.7,22.7,40.4,22.5z"/></g><text x="0" y="65" fill="#000000" font-size="5px" font-weight="bold" font-family="'Helvetica Neue', Helvetica, Arial-Unicode, Arial, Sans-serif">Created by Lane F. Kinkade</text><text x="0" y="70" fill="#000000" font-size="5px" font-weight="bold" font-family="'Helvetica Neue', Helvetica, Arial-Unicode, Arial, Sans-serif">from the Noun Project</text></svg>